# xmcd
# Track frame offsets:
# 150
# 15009
# 26959
# 44751
# 60813
# 77135
# 91061
# 105944
# 122487
# 139301
# 150647
# 166478
# 185761
# 200203
# 216182
# 232697
#
# Disc length: 3254 seconds
# Revision: 0
# Processed by: cddbd v1.5.1PL0 Copyright (c) Steve Scherf et al.
# Submitted via: VisiTrax 2.9.10.228 - For more info visit www.synapsa.com
#
DISCID=cb0cb410
DTITLE=Various Artist - Country Fever Vol 7
DYEAR=2001
DGENRE=Country
TTITLE0=David Lee Murphy - Party Crowd
TTITLE1=Alan Jackosn - Little Bitty
TTITLE2=Bryan White - Rebecca Lynn
TTITLE3=Tracy Lawrence - Stars Over texas
TTITLE4=Dixie Chicks - You Were Mine
TTITLE5=Toby Keith - He Ain't Worth Missing
TTITLE6=Dwight Yoakam - Ain't That Lonely Yet
TTITLE7=Blackhawk - Every Once In A while
TTITLE8=Garth Brooks - The Thunder Rolls
TTITLE9=John Michael Montgomery - Sold (The Grundy County Auction Incident)
TTITLE10=Brooks and Dunn - My Maria
TTITLE11=Lee Ann Womack - Little Past Little Rock
TTITLE12=Colin Ray - In This Life
TTITLE13=Mary Chapin Carpenter - I Feel Lucky
TTITLE14=Paul Brandt - I Do
TTITLE15=Tracy Byrd - Holdin' Heaven
EXTD=
EXTT0=
EXTT1=
EXTT2=
EXTT3=
EXTT4=
EXTT5=
EXTT6=
EXTT7=
EXTT8=
EXTT9=
EXTT10=
EXTT11=
EXTT12=
EXTT13=
EXTT14=
EXTT15=
PLAYORDER=
